<svg width="46" height="27" viewBox="0 0 46 27" fill="none" xmlns="http://www.w3.org/2000/svg">
<path d="M5.16 0.240234C2.355 0.240234 0.0599976 2.53523 0.0599976 5.34023V21.6602C0.0599976 24.4652 2.355 26.7602 5.16 26.7602H37.8C40.605 26.7602 42.9 24.4652 42.9 21.6602V18.6002H44.94C45.5018 18.6002 45.96 18.142 45.96 17.5802V9.42023C45.96 8.85844 45.5018 8.40023 44.94 8.40023H42.9V5.34023C42.9 2.53523 40.605 0.240234 37.8 0.240234H5.16ZM5.16 2.28023H37.8C39.5013 2.28023 40.86 3.63891 40.86 5.34023V9.42023C40.86 9.98203 41.3182 10.4402 41.88 10.4402H43.92V16.5602H41.88C41.3182 16.5602 40.86 17.0184 40.86 17.5802V21.6602C40.86 23.3616 39.5013 24.7202 37.8 24.7202H5.16C3.45867 24.7202 2.1 23.3616 2.1 21.6602V5.34023C2.1 3.63891 3.45867 2.28023 5.16 2.28023ZM5.06437 4.28836C5.02054 4.29633 4.97672 4.30828 4.93687 4.32023C4.46273 4.42781 4.12804 4.85414 4.14 5.34023V21.6602C4.13601 22.0268 4.32726 22.3695 4.64601 22.5567C4.96476 22.74 5.35523 22.74 5.67398 22.5567C5.99273 22.3695 6.18398 22.0268 6.18 21.6602V5.34023C6.19195 5.04539 6.07242 4.7625 5.86125 4.56328C5.64609 4.36008 5.35523 4.26047 5.06437 4.28836ZM9.14437 4.28836C9.10054 4.29633 9.05672 4.30828 9.01687 4.32023C8.54273 4.42781 8.20804 4.85414 8.22 5.34023V21.6602C8.21601 22.0268 8.40726 22.3695 8.72601 22.5567C9.04476 22.74 9.43523 22.74 9.75398 22.5567C10.0727 22.3695 10.264 22.0268 10.26 21.6602V5.34023C10.272 5.04539 10.1524 4.7625 9.94125 4.56328C9.72609 4.36008 9.43523 4.26047 9.14437 4.28836ZM13.2244 4.28836C13.1805 4.29633 13.1367 4.30828 13.0969 4.32023C12.6227 4.42781 12.288 4.85414 12.3 5.34023V21.6602C12.296 22.0268 12.4873 22.3695 12.806 22.5567C13.1248 22.74 13.5152 22.74 13.834 22.5567C14.1527 22.3695 14.344 22.0268 14.34 21.6602V5.34023C14.352 5.04539 14.2324 4.7625 14.0212 4.56328C13.8061 4.36008 13.5152 4.26047 13.2244 4.28836ZM17.3044 4.28836C17.2605 4.29633 17.2167 4.30828 17.1769 4.32023C16.7027 4.42781 16.368 4.85414 16.38 5.34023V21.6602C16.376 22.0268 16.5673 22.3695 16.886 22.5567C17.2048 22.74 17.5952 22.74 17.914 22.5567C18.2327 22.3695 18.424 22.0268 18.42 21.6602V5.34023C18.432 5.04539 18.3124 4.7625 18.1012 4.56328C17.8861 4.36008 17.5952 4.26047 17.3044 4.28836ZM21.3844 4.28836C21.3405 4.29633 21.2967 4.30828 21.2569 4.32023C20.7827 4.42781 20.448 4.85414 20.46 5.34023V21.6602C20.456 22.0268 20.6473 22.3695 20.966 22.5567C21.2848 22.74 21.6752 22.74 21.994 22.5567C22.3127 22.3695 22.504 22.0268 22.5 21.6602V5.34023C22.512 5.04539 22.3924 4.7625 22.1812 4.56328C21.9661 4.36008 21.6752 4.26047 21.3844 4.28836ZM25.4644 4.28836C25.4205 4.29633 25.3767 4.30828 25.3369 4.32023C24.8627 4.42781 24.528 4.85414 24.54 5.34023V21.6602C24.536 22.0268 24.7273 22.3695 25.046 22.5567C25.3648 22.74 25.7552 22.74 26.074 22.5567C26.3927 22.3695 26.584 22.0268 26.58 21.6602V5.34023C26.592 5.04539 26.4724 4.7625 26.2612 4.56328C26.0461 4.36008 25.7552 4.26047 25.4644 4.28836Z" fill="#93882A"/>
</svg>
