<svg width="37" height="41" viewBox="0 0 37 41" fill="none" xmlns="http://www.w3.org/2000/svg">
<path d="M15.0618 0.679688C14.9363 0.680025 14.8128 0.714979 14.7025 0.781407L1.07393 8.99438C0.954085 9.06646 0.854004 9.1731 0.784249 9.30305C0.714494 9.43299 0.677652 9.58141 0.677612 9.73266V12.4397C0.677632 12.6625 0.757409 12.8761 0.899396 13.0336C1.04138 13.1912 1.23395 13.2797 1.43476 13.2797H2.94904V30.0797C2.94906 30.3025 3.02884 30.5161 3.17083 30.6736C3.31281 30.8312 3.50538 30.9197 3.70618 30.9197H21.1604C21.1353 31.1963 21.1205 31.4761 21.1205 31.7597C21.1205 36.3759 24.5311 40.1597 28.6919 40.1597C32.8527 40.1597 36.2633 36.3759 36.2633 31.7597C36.2633 27.1435 32.8527 23.3597 28.6919 23.3597C28.1739 23.3597 27.6672 23.4187 27.1776 23.5303V13.2797H28.6919C28.8927 13.2797 29.0853 13.1912 29.2273 13.0336C29.3692 12.8761 29.449 12.6625 29.449 12.4397V9.73266C29.449 9.58141 29.4122 9.43299 29.3424 9.30305C29.2726 9.1731 29.1726 9.06646 29.0527 8.99438L15.4242 0.781407C15.3129 0.71445 15.1884 0.679479 15.0618 0.679688ZM15.0633 2.47617L27.9348 10.233V11.5997H26.9647L15.4286 4.56305C15.3167 4.49469 15.1911 4.45885 15.0633 4.45885C14.9356 4.45885 14.8099 4.49469 14.6981 4.56305L3.16199 11.5997H2.1919V10.233L15.0633 2.47617ZM15.0633 6.25945L25.6633 12.7235V24.0717C23.6809 25.0418 22.1342 26.9274 21.4724 29.2397H4.46333V12.7235L15.0633 6.25945ZM28.6919 25.0397C32.0268 25.0397 34.749 28.0599 34.749 31.7597C34.749 35.4595 32.0268 38.4797 28.6919 38.4797C25.357 38.4797 22.6348 35.4595 22.6348 31.7597C22.6348 28.0599 25.357 25.0397 28.6919 25.0397ZM26.4205 27.5597C26.0189 27.5597 25.6337 27.7367 25.3497 28.0517C25.0657 28.3668 24.9062 28.7941 24.9062 29.2397C24.9062 29.6853 25.0657 30.1126 25.3497 30.4276C25.6337 30.7427 26.0189 30.9197 26.4205 30.9197C26.8221 30.9197 27.2072 30.7427 27.4912 30.4276C27.7752 30.1126 27.9348 29.6853 27.9348 29.2397C27.9348 28.7941 27.7752 28.3668 27.4912 28.0517C27.2072 27.7367 26.8221 27.5597 26.4205 27.5597ZM31.1851 27.8058L25.128 34.5258L26.1987 35.7136L32.2558 28.9936L31.1851 27.8058ZM30.9633 32.5997C30.5617 32.5997 30.1765 32.7767 29.8926 33.0917C29.6086 33.4068 29.449 33.8341 29.449 34.2797C29.449 34.7253 29.6086 35.1526 29.8926 35.4676C30.1765 35.7827 30.5617 35.9597 30.9633 35.9597C31.3649 35.9597 31.7501 35.7827 32.0341 35.4676C32.3181 35.1526 32.4776 34.7253 32.4776 34.2797C32.4776 33.8341 32.3181 33.4068 32.0341 33.0917C31.7501 32.7767 31.3649 32.5997 30.9633 32.5997Z" fill="#93882A"/>
</svg>
