<svg width="13" height="15" viewBox="0 0 13 15" fill="none" xmlns="http://www.w3.org/2000/svg">
<path d="M0.800049 0V15H12.2V4.37578L7.82427 0H0.800049ZM1.40005 0.6H7.40005V4.8H11.6V14.4H1.40005V0.6ZM8.00005 1.02422L11.1758 4.2H8.00005V1.02422ZM4.19497 7.34766C3.95474 7.34766 3.73091 7.37344 3.55747 7.41445V10.8H4.0977V9.4582C4.14927 9.46406 4.19497 9.46406 4.25122 9.46406C4.54185 9.46406 4.87349 9.34688 5.07739 9.10664C5.2356 8.92266 5.33286 8.68828 5.33286 8.34258C5.33286 8.04609 5.24028 7.78125 5.0563 7.60781C4.85239 7.41445 4.55708 7.34766 4.19497 7.34766ZM6.36763 7.34766C6.13325 7.34766 5.91411 7.37344 5.75591 7.41445V10.7895C5.87895 10.8094 6.06763 10.8246 6.2563 10.8246C6.69927 10.8246 7.03677 10.7133 7.26528 10.4777C7.52544 10.2234 7.70942 9.75938 7.70942 9.01992C7.70942 8.33086 7.53599 7.8832 7.25474 7.63242C7.05083 7.44375 6.76489 7.34766 6.36763 7.34766ZM8.15239 7.36289V10.8H8.69849V9.31641H9.50942V8.86289H8.69849V7.8375H9.56567V7.36289H8.15239ZM6.45435 7.78594C6.92896 7.78594 7.14692 8.23477 7.14692 9.01523C7.14692 10.0605 6.80591 10.377 6.42856 10.377C6.39341 10.377 6.34185 10.377 6.29614 10.3664V7.80117C6.34185 7.7918 6.3981 7.78594 6.45435 7.78594ZM4.28638 7.79063C4.65317 7.79063 4.7856 8.06133 4.7856 8.38242C4.7856 8.775 4.58755 9.01992 4.2313 9.01992C4.17505 9.01992 4.13872 9.01992 4.0977 9.00938V7.81641C4.14341 7.80117 4.2102 7.79063 4.28638 7.79063Z" fill="#93882A"/>
</svg>
