<svg width="17" height="21" viewBox="0 0 17 21" fill="none" xmlns="http://www.w3.org/2000/svg">
<path d="M12.5625 0H16.4497V20.648H12.5625V10.2734V0ZM2.8285 20.648C2.30171 20.648 1.84859 20.4466 1.46946 20.0435C1.09032 19.6411 0.900757 19.1597 0.900757 18.6001C0.900757 18.0182 1.09032 17.5257 1.46946 17.1229C1.84891 16.7201 2.30171 16.5184 2.8285 16.5184C3.37624 16.5184 3.83984 16.7201 4.21898 17.1229C4.59811 17.526 4.78768 18.0182 4.78768 18.6001C4.78768 19.1597 4.59811 19.6411 4.21898 20.0439C3.83984 20.4466 3.37624 20.648 2.8285 20.648ZM10.603 15.0746C10.1603 16.3056 9.49669 18.1636 8.61205 20.648C6.90562 16.06 4.33488 9.17743 0.900757 0H4.75624C6.04162 3.33519 7.99063 8.36007 10.603 15.0746Z" fill="black"/>
</svg>
