<svg width="45" height="47" viewBox="0 0 45 47" fill="none" xmlns="http://www.w3.org/2000/svg">
<path d="M38.4441 0.948858C37.6814 0.97984 36.9647 1.45696 36.6793 2.20831C36.6787 2.21022 36.678 2.21214 36.6774 2.21405L35.8563 4.40757L35.0179 4.08792C33.5595 3.53361 31.8975 4.27744 31.3467 5.73976C29.8809 9.63166 27.2429 16.4657 26.7607 17.9209C26.6373 18.2914 26.4134 18.4101 26.0926 18.5104C25.7719 18.6106 25.4897 18.6003 25.4897 18.6003C25.3611 18.5938 25.2325 18.6126 25.1112 18.6558C24.9899 18.6989 24.8783 18.7655 24.7827 18.8518C24.6872 18.9381 24.6096 19.0424 24.5543 19.1587C24.4991 19.275 24.4673 19.401 24.4607 19.5296C24.4542 19.6582 24.473 19.7868 24.5162 19.9081C24.5594 20.0294 24.626 20.141 24.7124 20.2365C24.7987 20.3321 24.9029 20.4097 25.0193 20.4649C25.1356 20.5201 25.2616 20.5519 25.3902 20.5584C25.3902 20.5584 25.9933 20.5945 26.6783 20.3804C27.3634 20.1663 28.2652 19.6101 28.6211 18.541C28.6211 18.5404 28.6211 18.5397 28.6211 18.5391C28.9959 17.4078 31.7103 10.3391 33.1823 6.43073C33.3587 5.96245 33.8529 5.74095 34.3231 5.91968L35.171 6.24124L24.0599 35.9379C24.0428 35.9853 24.0294 36.0339 24.0197 36.0834C23.994 36.1814 23.9837 36.2827 23.9891 36.3839L24.2628 42.9568L23.5527 44.689C23.5039 44.8082 23.479 44.9358 23.4795 45.0645C23.48 45.1933 23.5059 45.3207 23.5557 45.4394C23.6054 45.5582 23.6781 45.666 23.7695 45.7567C23.861 45.8473 23.9693 45.9191 24.0885 45.9679C24.2077 46.0166 24.3353 46.0415 24.464 46.0409C24.5928 46.0404 24.7202 46.0145 24.8389 45.9647C24.9577 45.9149 25.0655 45.8422 25.1561 45.7507C25.2467 45.6593 25.3185 45.5509 25.3672 45.4317L25.9855 43.9234L31.0864 39.1268C31.2515 38.9715 31.3577 38.7639 31.3869 38.5391L43.9432 4.97796C44.323 3.97817 43.8101 2.83296 42.8101 2.4514L42.8082 2.44948L39.2097 1.07327C39.2091 1.07327 39.2084 1.07327 39.2078 1.07327C38.9576 0.978246 38.6983 0.938531 38.4441 0.948858ZM38.5111 2.90503L42.1114 4.28124C42.1114 4.28188 42.1114 4.28252 42.1114 4.28316C42.1108 4.28443 42.1102 4.28571 42.1095 4.28698L41.2922 6.47284L37.688 5.10237L38.5111 2.90503ZM37.0028 6.93796L40.6051 8.30843L36.9148 18.1697L33.324 16.7667L37.0028 6.93796ZM10.74 16.6403C9.23585 16.6403 7.90029 17.2967 6.81038 18.2482C5.72048 19.1996 4.83491 20.4494 4.09241 21.7911C2.60741 24.4745 1.7015 27.5364 1.29788 29.4569C1.29651 29.4645 1.29524 29.4722 1.29405 29.4799C1.11426 30.4476 0.772275 32.8549 0.989716 35.178C1.09844 36.3396 1.33528 37.4852 1.91421 38.4473C2.49314 39.4094 3.55729 40.1603 4.85995 40.1603C7.09754 40.1603 8.6151 39.1504 9.64894 38.3075C10.1659 37.8861 10.5851 37.5109 10.9084 37.3026C11.0493 37.2119 11.1102 37.2406 11.2051 37.205C11.2602 37.5935 11.2958 38.1545 11.3563 38.7669C11.4207 39.4191 11.504 40.1034 11.785 40.7556C11.9256 41.0817 12.1243 41.4121 12.4473 41.6801C12.7703 41.9481 13.2253 42.1179 13.6742 42.1203C14.251 42.1234 14.6664 41.8638 14.9911 41.6189C15.3158 41.374 15.5812 41.1015 15.8275 40.8571C16.0738 40.6126 16.3002 40.3957 16.4649 40.2733C16.6296 40.1509 16.7024 40.1603 16.62 40.1603C16.6354 40.1603 16.6333 40.1555 16.6448 40.1546C16.6858 40.2542 16.7709 40.6214 16.9071 41.1499C17.1915 42.2536 17.9483 43.8988 20.1763 45.0355C20.408 45.1535 20.6771 45.1746 20.9245 45.0942C21.0469 45.0544 21.1604 44.9909 21.2583 44.9072C21.3562 44.8236 21.4366 44.7215 21.4951 44.6067C21.5535 44.492 21.5888 44.3668 21.5989 44.2385C21.6089 44.1101 21.5936 43.981 21.5538 43.8585C21.514 43.7361 21.4505 43.6226 21.3668 43.5247C21.2832 43.4268 21.1811 43.3464 21.0663 43.2879C19.293 42.3832 19.0298 41.5385 18.8039 40.6618C18.6909 40.2235 18.6554 39.7712 18.3847 39.232C18.114 38.6929 17.3549 38.2003 16.62 38.2003C16.0475 38.2003 15.6262 38.4541 15.2954 38.6999C14.9646 38.9458 14.6937 39.2213 14.4456 39.4675C14.1975 39.7136 13.9721 39.931 13.8101 40.0532C13.7426 40.1041 13.7041 40.122 13.678 40.1355C13.6632 40.1197 13.6318 40.0907 13.5842 39.9804C13.4672 39.7088 13.3667 39.1614 13.3086 38.5736C13.2505 37.9857 13.2238 37.3621 13.1325 36.7935C13.0869 36.5092 13.0339 36.2384 12.8875 35.936C12.7411 35.6336 12.38 35.2088 11.8501 35.1378C11.0804 35.0352 10.381 35.3114 9.848 35.6546C9.315 35.9979 8.87521 36.4089 8.41054 36.7878C7.48118 37.5455 6.54237 38.2003 4.85995 38.2003C4.20262 38.2003 3.92106 37.9821 3.59284 37.4366C3.26463 36.8912 3.03343 35.9909 2.94015 34.9943C2.75372 33.0025 3.07091 30.6533 3.22151 29.8416C3.22162 29.841 3.2214 29.8384 3.22151 29.8378C3.59047 28.0909 4.47315 25.1515 5.80741 22.7405C6.47685 21.5308 7.2608 20.4569 8.10046 19.7239C8.94011 18.9909 9.79405 18.6003 10.74 18.6003C11.8833 18.6003 12.4582 19.0582 12.945 19.9344C13.4317 20.8107 13.68 22.1392 13.68 23.5003C13.6781 23.6302 13.7021 23.7591 13.7505 23.8796C13.799 24.0002 13.8708 24.1098 13.962 24.2023C14.0532 24.2948 14.1619 24.3682 14.2817 24.4184C14.4015 24.4685 14.5301 24.4943 14.66 24.4943C14.7898 24.4943 14.9184 24.4685 15.0382 24.4184C15.158 24.3682 15.2667 24.2948 15.3579 24.2023C15.4491 24.1098 15.5209 24.0002 15.5694 23.8796C15.6178 23.7591 15.6418 23.6302 15.64 23.5003C15.64 21.9215 15.3982 20.31 14.66 18.9812C13.9217 17.6524 12.5366 16.6403 10.74 16.6403ZM32.6368 18.6023L36.2276 20.0053L29.8366 37.0864L26.2362 35.7121L32.6368 18.6023ZM26.0065 37.7218L28.6479 38.7286L26.1462 41.081L26.0065 37.7218Z" fill="#93882A"/>
</svg>
