<svg width="42" height="43" viewBox="0 0 42 43" fill="none" xmlns="http://www.w3.org/2000/svg">
<path d="M9.55999 0C8.59749 0 7.79999 0.7975 7.79999 1.76V3.52H2.51999C2.05937 3.52 1.59187 3.68844 1.26187 4.02188C0.928432 4.35188 0.759995 4.81938 0.759995 5.28V40.48C0.759995 40.9406 0.928432 41.4081 1.26187 41.7416C1.59187 42.0716 2.05937 42.24 2.51999 42.24H39.48C39.9406 42.24 40.4081 42.0716 40.7416 41.7416C41.0716 41.4081 41.24 40.9406 41.24 40.48V5.28C41.24 4.81938 41.0716 4.35188 40.7416 4.02188C40.4081 3.68844 39.9406 3.52 39.48 3.52H34.2V1.76C34.2 0.7975 33.4025 0 32.44 0H30.68C29.7175 0 28.92 0.7975 28.92 1.76V3.52H13.08V1.76C13.08 0.7975 12.2825 0 11.32 0H9.55999ZM9.55999 1.76H11.32V7.04H9.55999V1.76ZM30.68 1.76H32.44V7.04H30.68V1.76ZM2.51999 5.28H7.79999V7.04C7.79999 8.0025 8.59749 8.8 9.55999 8.8H11.32C12.2825 8.8 13.08 8.0025 13.08 7.04V5.28H28.92V7.04C28.92 8.0025 29.7175 8.8 30.68 8.8H32.44C33.4025 8.8 34.2 8.0025 34.2 7.04V5.28H39.48V11.44H2.51999V5.28ZM2.51999 13.2H39.48V40.48H2.51999V13.2ZM7.79999 16.72V36.96H34.2V16.72H7.79999ZM9.55999 18.48H13.96V22.88H9.55999V18.48ZM15.72 18.48H20.12V22.88H15.72V18.48ZM21.88 18.48H26.28V22.88H21.88V18.48ZM28.04 18.48H32.44V22.88H28.04V18.48ZM9.55999 24.64H13.96V29.04H9.55999V24.64ZM15.72 24.64H20.12V29.04H15.72V24.64ZM21.88 24.64H26.28V29.04H21.88V24.64ZM28.04 24.64H32.44V29.04H28.04V24.64ZM9.55999 30.8H13.96V35.2H9.55999V30.8ZM15.72 30.8H20.12V35.2H15.72V30.8ZM21.88 30.8H26.28V35.2H21.88V30.8ZM28.04 30.8H32.44V35.2H28.04V30.8Z" fill="#93882A"/>
</svg>
