<svg width="42" height="43" viewBox="0 0 42 43" fill="none" xmlns="http://www.w3.org/2000/svg">
<path d="M9.55999 0C8.59727 0 7.79999 0.79728 7.79999 1.76V3.52H2.51999C2.16271 3.52 1.76993 3.57577 1.39593 3.83625C1.02105 4.09761 0.759995 4.61645 0.759995 5.09781V40.5178C0.759995 40.9578 0.911575 41.4082 1.22749 41.7347C1.54077 42.0647 2.00077 42.24 2.44781 42.24H39.5522C39.9992 42.24 40.4592 42.0647 40.7725 41.7347C41.0884 41.4082 41.24 40.9578 41.24 40.5178V5.09781C41.24 4.61645 40.9789 4.09761 40.6041 3.83625C40.2292 3.57489 39.8373 3.52 39.48 3.52H34.2V1.76C34.2 0.79728 33.4027 0 32.44 0H30.68C29.7173 0 28.92 0.79728 28.92 1.76V3.52H13.08V1.76C13.08 0.79728 12.2827 0 11.32 0H9.55999ZM9.55999 1.76H11.32V7.04H9.55999V1.76ZM30.68 1.76H32.44V7.04H30.68V1.76ZM2.51999 5.28H7.79999V7.04C7.79999 8.00272 8.59727 8.8 9.55999 8.8H11.32C12.2827 8.8 13.08 8.00272 13.08 7.04V5.28H28.92V7.04C28.92 8.00272 29.7173 8.8 30.68 8.8H32.44C33.4027 8.8 34.2 8.00272 34.2 7.04V5.28H39.48V11.44H2.51999V5.28ZM2.51999 13.2H39.48V40.48H2.51999V13.2ZM30.0011 21.78C27.3285 21.78 25.675 23.6684 25.675 26.7334C25.675 29.7844 27.3345 31.68 30.008 31.68C32.1833 31.68 33.7797 30.3794 34.0023 28.4522H32.342C32.1132 29.5108 31.2039 30.1778 30.008 30.1778C28.4002 30.1778 27.4006 28.857 27.4006 26.7266C27.4006 24.6022 28.4004 23.2822 30.0011 23.2822C31.1908 23.2822 32.1002 24.0145 32.3351 25.1453H33.9955C33.7992 23.1785 32.1448 21.78 30.0011 21.78ZM7.99937 22.0155V31.4463H11.5331C14.3562 31.4463 15.9709 29.7125 15.9709 26.687C15.9709 23.7267 14.3368 22.0155 11.5331 22.0155H7.99937ZM17.8856 22.0155V31.4445H23.9889V29.987H19.5717V27.28H23.64V25.9067H19.57V23.473H23.9889V22.0155H17.8856ZM9.68374 23.473H11.3114C13.1603 23.473 14.2522 24.6545 14.2522 26.7128C14.2522 28.8178 13.1876 29.987 11.3114 29.987H9.68374V23.473Z" fill="#93882A"/>
</svg>
