<svg width="22" height="32" viewBox="0 0 22 32" fill="none" xmlns="http://www.w3.org/2000/svg">
<path d="M0.771367 9.77598e-05C0.686382 -0.00138771 0.601951 0.0140688 0.523004 0.0455653C0.444056 0.0770618 0.372172 0.123967 0.311548 0.183545C0.250923 0.243122 0.202773 0.314177 0.169905 0.392564C0.137038 0.470951 0.120113 0.555099 0.120117 0.640098V28.1601C0.120102 28.2667 0.146734 28.3717 0.197596 28.4654C0.248457 28.5592 0.321936 28.6387 0.411354 28.6968C0.500772 28.755 0.603296 28.7898 0.709611 28.7983C0.815925 28.8067 0.92266 28.7884 1.02012 28.7451L6.69012 26.2251C6.82652 26.1875 6.94663 26.1058 7.03166 25.9927C7.1167 25.8796 7.16187 25.7416 7.16012 25.6001V3.8401H19.9601V25.6001C19.9589 25.6849 19.9746 25.7691 20.0062 25.8478C20.0378 25.9265 20.0848 25.9981 20.1443 26.0585C20.2039 26.1189 20.2748 26.1669 20.3531 26.1996C20.4313 26.2324 20.5153 26.2492 20.6001 26.2492C20.6849 26.2492 20.7689 26.2324 20.8471 26.1996C20.9254 26.1669 20.9963 26.1189 21.0559 26.0585C21.1154 25.9981 21.1624 25.9265 21.194 25.8478C21.2256 25.7691 21.2413 25.6849 21.2401 25.6001V3.2001C21.2401 3.03036 21.1727 2.86759 21.0526 2.74757C20.9326 2.62755 20.7698 2.56011 20.6001 2.5601H6.65637L1.02012 0.0550978C0.941724 0.0202817 0.857132 0.00157796 0.771367 9.77598e-05ZM1.40012 1.6251L5.88012 3.61635V25.1838L1.40012 27.1751V1.6251ZM13.5751 7.6801C12.1744 7.6801 11.0314 8.83664 11.0314 10.2401C11.0314 11.6436 12.1744 12.8001 13.5751 12.8001C14.9758 12.8001 16.1201 11.6436 16.1201 10.2401C16.1201 8.83664 14.9758 7.6801 13.5751 7.6801ZM13.5751 8.9601C14.2787 8.9601 14.8401 9.5226 14.8401 10.2401C14.8401 10.9576 14.2787 11.5201 13.5751 11.5201C12.8715 11.5201 12.3114 10.9576 12.3114 10.2401C12.3114 9.5226 12.8715 8.9601 13.5751 8.9601ZM2.68012 13.4401C2.32684 13.4401 2.04012 13.8702 2.04012 14.4001C2.04012 14.93 2.32684 15.3601 2.68012 15.3601C3.0334 15.3601 3.32012 14.93 3.32012 14.4001C3.32012 13.8702 3.0334 13.4401 2.68012 13.4401ZM13.5601 13.4401C11.0933 13.4401 9.08012 15.4533 9.08012 17.9201V21.1201C9.08015 21.2898 9.14759 21.4526 9.26762 21.5726L10.4101 22.7151L11.2439 26.8801H9.08012C8.94575 26.88 8.81477 26.9222 8.70573 27.0008C8.5967 27.0793 8.51514 27.1901 8.47262 27.3176L7.19262 31.1576C7.16053 31.2538 7.15178 31.3563 7.16709 31.4566C7.1824 31.5569 7.22132 31.6521 7.28065 31.7344C7.33999 31.8167 7.41803 31.8837 7.50835 31.9299C7.59867 31.9761 7.69867 32.0001 7.80012 32.0001H19.3201C19.4216 32.0001 19.5216 31.9761 19.6119 31.9299C19.7022 31.8837 19.7802 31.8167 19.8396 31.7344C19.8989 31.6521 19.9378 31.5569 19.9531 31.4566C19.9685 31.3563 19.9597 31.2538 19.9276 31.1576L18.6476 27.3176C18.6051 27.1901 18.5235 27.0793 18.4145 27.0008C18.3055 26.9222 18.1745 26.88 18.0401 26.8801H15.8764L16.7101 22.7151L17.8526 21.5726C17.9726 21.4526 18.0401 21.2898 18.0401 21.1201V17.9201C18.0401 15.4533 16.0269 13.4401 13.5601 13.4401ZM13.5601 14.7201C13.9338 14.7201 14.2863 14.7951 14.6189 14.9113L13.5601 16.6763L12.5014 14.9113C12.8339 14.7951 13.1865 14.7201 13.5601 14.7201ZM11.4014 15.5651L13.0114 18.2488C13.0682 18.3436 13.1487 18.422 13.2448 18.4764C13.341 18.5308 13.4496 18.5594 13.5601 18.5594C13.6706 18.5594 13.7792 18.5308 13.8754 18.4764C13.9716 18.422 14.052 18.3436 14.1089 18.2488L15.7189 15.5651C16.3561 16.149 16.7601 16.9821 16.7601 17.9201V20.8551L15.6676 21.9476C15.5782 22.0371 15.5173 22.151 15.4926 22.2751L14.4876 27.2976C14.4649 27.3594 14.4518 27.4243 14.4489 27.4901L14.3151 28.1601H12.8051L12.6714 27.4926C12.6686 27.4264 12.6555 27.361 12.6326 27.2988L11.6276 22.2751C11.6029 22.151 11.542 22.0371 11.4526 21.9476L10.3601 20.8551V17.9201C10.3601 16.9821 10.7642 16.149 11.4014 15.5651ZM9.54137 28.1601H11.5001L11.6526 28.9251C11.6815 29.0703 11.7599 29.2009 11.8743 29.2948C11.9887 29.3887 12.1321 29.44 12.2801 29.4401H14.8401C14.9881 29.44 15.1315 29.3887 15.246 29.2948C15.3604 29.2009 15.4387 29.0703 15.4676 28.9251L15.6201 28.1601H17.5789L18.4314 30.7201H8.68887L9.54137 28.1601Z" fill="#93882A"/>
</svg>
