<svg width="39" height="37" viewBox="0 0 39 37" fill="none" xmlns="http://www.w3.org/2000/svg">
<path d="M0.33728 0.0390625V30.2791H24.7778V28.5991H1.86481V26.5105L13.0573 16.7751C13.9894 17.6685 15.6693 19.2795 15.8826 19.4838C17.1815 20.7274 18.5566 21.0374 19.4315 21.0374C20.3057 21.0374 21.6812 20.7276 22.9803 19.4838C23.1934 19.2797 24.8722 17.6702 25.8026 16.7784L31.965 22.1711L33.051 20.9767L26.9737 15.6562C30.9757 11.8203 35.6664 7.32354 36.9981 6.04703V21.6756L38.5256 23.3556V0.0390625H0.33728ZM1.86481 1.71906H36.9981V3.82398C36.674 4.13462 23.1081 17.1381 21.9793 18.2188C20.9886 19.1674 19.9793 19.3607 19.4315 19.3607C18.8841 19.3607 17.8744 19.1676 16.8836 18.2188C15.7548 17.1381 2.18887 4.13462 1.86481 3.82398V1.71906ZM1.86481 6.04539C3.0435 7.17533 7.88387 11.8163 11.8863 15.6529L1.86481 24.3695V6.04539ZM27.0572 21.8676C26.8549 21.8711 26.6621 21.9627 26.5212 22.1223C26.3802 22.2819 26.3026 22.4966 26.3054 22.7191V34.1313L24.5541 32.2052C24.4829 32.1247 24.3978 32.0607 24.3037 32.017C24.2097 31.9734 24.1087 31.9509 24.0066 31.9509C23.8547 31.9509 23.7062 32.0008 23.5802 32.0941C23.4541 32.1875 23.3563 32.32 23.2991 32.4748C23.2419 32.6297 23.228 32.7997 23.2592 32.9633C23.2904 33.1268 23.3652 33.2764 23.4741 33.393L26.462 36.6791C26.5334 36.7821 26.6254 36.8654 26.7309 36.9228C26.8364 36.9801 26.9526 37.0099 27.0702 37.0097C27.1879 37.0095 27.304 36.9795 27.4094 36.9219C27.5148 36.8642 27.6066 36.7806 27.6778 36.6775L30.6642 33.393C30.7375 33.3156 30.796 33.2229 30.8363 33.1203C30.8767 33.0177 30.898 32.9073 30.899 32.7955C30.9 32.6838 30.8808 32.5729 30.8424 32.4694C30.804 32.366 30.7472 32.272 30.6753 32.1929C30.6035 32.1139 30.518 32.0515 30.4239 32.0092C30.3298 31.967 30.229 31.9458 30.1274 31.9469C30.0258 31.9481 29.9254 31.9715 29.8321 32.0158C29.7389 32.0602 29.6546 32.1245 29.5842 32.2052L27.8329 34.1313V22.7191C27.8343 22.6067 27.8152 22.4951 27.7767 22.391C27.7382 22.2869 27.6811 22.1924 27.6087 22.113C27.5364 22.0336 27.4503 21.9709 27.3556 21.9288C27.2608 21.8866 27.1594 21.8658 27.0572 21.8676ZM34.6949 21.8676C34.5789 21.8696 34.465 21.9007 34.3616 21.9584C34.2582 22.0161 34.1681 22.0989 34.0982 22.2006L31.1117 25.4852C31.0384 25.5626 30.9799 25.6553 30.9396 25.7579C30.8993 25.8604 30.878 25.9708 30.8769 26.0826C30.8759 26.1944 30.8952 26.3052 30.9336 26.4087C30.972 26.5122 31.0288 26.6062 31.1006 26.6852C31.1725 26.7642 31.2579 26.8267 31.352 26.8689C31.4461 26.9112 31.5469 26.9323 31.6485 26.9312C31.7501 26.9301 31.8505 26.9066 31.9438 26.8623C32.0371 26.818 32.1214 26.7536 32.1917 26.673L33.943 24.7469V36.1591C33.9416 36.2704 33.9603 36.3809 33.998 36.4842C34.0358 36.5875 34.0918 36.6815 34.1629 36.7608C34.2339 36.84 34.3186 36.903 34.412 36.9459C34.5054 36.9889 34.6056 37.011 34.7068 37.011C34.808 37.011 34.9082 36.9889 35.0016 36.9459C35.095 36.903 35.1797 36.84 35.2507 36.7608C35.3218 36.6815 35.3778 36.5875 35.4156 36.4842C35.4533 36.3809 35.472 36.2704 35.4706 36.1591V24.7469L37.2219 26.673C37.2922 26.7536 37.3765 26.818 37.4698 26.8623C37.5631 26.9066 37.6635 26.9301 37.7651 26.9312C37.8667 26.9323 37.9675 26.9112 38.0616 26.8689C38.1557 26.8267 38.2411 26.7642 38.313 26.6852C38.3848 26.6062 38.4416 26.5122 38.48 26.4087C38.5184 26.3052 38.5377 26.1944 38.5367 26.0826C38.5356 25.9708 38.5143 25.8604 38.474 25.7579C38.4337 25.6553 38.3752 25.5626 38.3019 25.4852L35.311 22.1957C35.2385 22.0921 35.1451 22.0085 35.0382 21.9515C34.9312 21.8945 34.8137 21.8658 34.6949 21.8676Z" fill="#93882A"/>
</svg>
