<svg width="39" height="37" viewBox="0 0 39 37" fill="none" xmlns="http://www.w3.org/2000/svg">
<path d="M32.0149 0C29.4945 0 27.4323 2.35134 27.4323 5.20734V6.72H26.5924C25.7523 6.72 25.141 7.47633 25.141 8.31633V16.8C25.141 17.724 25.7523 18.48 26.5924 18.48H37.4373C38.2011 18.48 38.8888 17.7237 38.8888 16.8837V8.31633C38.8888 7.47633 38.2775 6.72 37.4373 6.72H36.5975V5.20734C36.5975 2.35134 34.5353 0 32.0149 0ZM32.0149 1.68C33.6952 1.68 35.07 3.27534 35.07 5.20734V6.72H28.9598V5.20734C28.9598 3.27534 30.3346 1.68 32.0149 1.68ZM0.700439 6.72V36.96H38.8888V20.16H37.3613V31.0505L27.3055 22.3059C28.2325 21.4023 28.5714 21.0695 29.5088 20.1616H27.1936C25.1085 22.1894 22.6175 24.6376 22.3425 24.9014C21.2663 25.9312 20.2025 26.0433 19.7946 26.0433C19.3868 26.0433 18.3236 25.9321 17.2467 24.9014C16.1775 23.8758 3.84945 12.0598 2.22797 10.5049V8.4H23.6135V6.72H0.700439ZM26.6685 8.4H37.3613V16.8H26.6685V8.4ZM32.0149 10.92C31.4039 10.92 30.9453 11.4243 30.9453 12.0963C30.9453 12.4323 31.0981 12.6843 31.3272 12.9363V14.0273C31.3272 14.4473 31.633 14.7837 32.0149 14.7837C32.3968 14.7837 32.7026 14.4473 32.7026 14.0273V12.9363C32.9317 12.6843 33.0845 12.4323 33.0845 12.0963C33.0845 11.4243 32.6259 10.92 32.0149 10.92ZM2.22797 12.728C4.66049 15.0592 8.88843 19.1125 12.2494 22.3338L2.22797 31.0505V12.728ZM26.1434 23.438L37.3613 33.1915V35.28H2.22797V33.1915L13.4204 23.4577C14.1967 24.2016 16.0559 25.9829 16.2458 26.1647C17.7107 27.5675 19.2157 27.7184 19.7946 27.7184C20.3736 27.7184 21.8793 27.5675 23.3434 26.1647C23.5023 26.0125 25.1314 24.4258 26.1434 23.438Z" fill="#93882A"/>
</svg>
