<svg width="42" height="45" viewBox="0 0 42 45" fill="none" xmlns="http://www.w3.org/2000/svg">
<path d="M21.9844 0.986341C21.9359 0.987391 21.8876 0.99196 21.8398 1.00001H0V45H34V38.3848L32 39.9688V43H28.1699L28 43.1348V43H2V3.00001H21V14H32V19.0313L34 20.6152V12.586L22.791 1.37697C22.7371 1.30642 22.6741 1.24337 22.6035 1.18947L22.4141 1.00001H22.1543C22.0981 0.990628 22.0413 0.986054 21.9844 0.986341ZM23 4.41408L30.5859 12H23V4.41408ZM8 19V21H26V19H8ZM30 20V26H23V33H30V39L42 29.5L30 20ZM32 24.1348L38.7773 29.5L32 34.8652V33V31H30H25V28H30H32V26V24.1348ZM8 25V27H21V25H8ZM8 31V33H21V31H8Z" fill="#93882A"/>
</svg>
